<mxfile host="65bd71144e">
    <diagram id="eFZ1RIqKr_HmEfzbBE9D" name="페이지-1">
        <mxGraphModel dx="758" dy="550" grid="1" gridSize="10" guides="1" tooltips="1" connect="1" arrows="1" fold="1" page="1" pageScale="1" pageWidth="1000" pageHeight="1000" math="0" shadow="0">
            <root>
                <mxCell id="0"/>
                <mxCell id="1" parent="0"/>
                <mxCell id="2" value="BannerManagement" style="swimlane;fontStyle=1;align=center;horizontal=1;startSize=30;collapsible=0;html=1;sketch=1;fontFamily=Comic Sans MS;fontSize=20;" parent="1" vertex="1">
                    <mxGeometry x="60" y="160" width="330" height="610" as="geometry"/>
                </mxCell>
                <mxCell id="3" value="&lt;span style=&quot;font-size: 14px&quot;&gt;constructor&lt;/span&gt;" style="shape=umlFrame;tabPosition=left;html=1;boundedLbl=1;labelInHeader=1;width=100;height=30;swimlaneFillColor=#ffffff;align=left;spacingLeft=5;sketch=1;fontStyle=1;fontFamily=Times New Roman;" parent="2" vertex="1">
                    <mxGeometry width="190" height="100" relative="1" as="geometry">
                        <mxPoint x="70" y="50" as="offset"/>
                    </mxGeometry>
                </mxCell>
                <mxCell id="4" value="enableBannerContainer&#10;enableBannerIcon&#10;bannerCount" style="text;align=left;sketch=1;fontStyle=1;fontFamily=Lucida Console;" parent="3" vertex="1">
                    <mxGeometry width="140" height="20" relative="1" as="geometry">
                        <mxPoint x="10" y="40" as="offset"/>
                    </mxGeometry>
                </mxCell>
                <mxCell id="14" value="&lt;span style=&quot;font-size: 14px&quot;&gt;getter&lt;/span&gt;" style="shape=umlFrame;tabPosition=left;html=1;boundedLbl=1;labelInHeader=1;width=100;height=30;swimlaneFillColor=#ffffff;align=left;spacingLeft=5;sketch=1;fontStyle=1;fontFamily=Times New Roman;" parent="2" vertex="1">
                    <mxGeometry x="70" y="280" width="190" height="150" as="geometry"/>
                </mxCell>
                <mxCell id="15" value="getContainer&#10;getIcon&#10;getSize&#10;getCount" style="text;align=left;sketch=1;fontStyle=1;fontFamily=Lucida Console;" parent="14" vertex="1">
                    <mxGeometry width="140" height="70" relative="1" as="geometry">
                        <mxPoint x="10" y="40" as="offset"/>
                    </mxGeometry>
                </mxCell>
                <mxCell id="74" style="edgeStyle=orthogonalEdgeStyle;curved=0;rounded=1;sketch=0;orthogonalLoop=1;jettySize=auto;html=1;exitX=1;exitY=0.75;exitDx=0;exitDy=0;entryX=0.929;entryY=0.749;entryDx=0;entryDy=0;entryPerimeter=0;fontFamily=Noto Sans KR;fontSource=https%3A%2F%2Ffonts.googleapis.com%2Fcss%3Ffamily%3DNoto%2BSans%2BKR;fontSize=14;" parent="14" source="15" target="15" edge="1">
                    <mxGeometry relative="1" as="geometry"/>
                </mxCell>
                <mxCell id="16" value="&lt;span style=&quot;font-size: 14px&quot;&gt;Function&lt;/span&gt;" style="shape=umlFrame;tabPosition=left;html=1;boundedLbl=1;labelInHeader=1;width=100;height=30;swimlaneFillColor=#ffffff;align=left;spacingLeft=5;sketch=1;fontStyle=1;fontFamily=Times New Roman;" parent="2" vertex="1">
                    <mxGeometry x="70" y="450" width="190" height="120" as="geometry"/>
                </mxCell>
                <mxCell id="17" value="bannerNext&#10;bannerBack&#10;iconMove&#10;bannerMove" style="text;align=left;sketch=1;fontStyle=1;fontFamily=Lucida Console;" parent="16" vertex="1">
                    <mxGeometry width="140" height="70" relative="1" as="geometry">
                        <mxPoint x="10" y="40" as="offset"/>
                    </mxGeometry>
                </mxCell>
                <mxCell id="12" value="&lt;span style=&quot;font-size: 14px&quot;&gt;Setter&lt;/span&gt;" style="shape=umlFrame;tabPosition=left;html=1;boundedLbl=1;labelInHeader=1;width=100;height=30;swimlaneFillColor=#ffffff;align=left;spacingLeft=5;sketch=1;fontStyle=1;fontFamily=Times New Roman;" parent="2" vertex="1">
                    <mxGeometry x="70" y="170" width="190" height="100" as="geometry"/>
                </mxCell>
                <mxCell id="13" value="index(_n)" style="text;align=left;sketch=1;fontStyle=1;fontFamily=Lucida Console;" parent="12" vertex="1">
                    <mxGeometry width="140" height="20" relative="1" as="geometry">
                        <mxPoint x="10" y="40" as="offset"/>
                    </mxGeometry>
                </mxCell>
                <mxCell id="55" value="" style="edgeStyle=orthogonalEdgeStyle;curved=0;rounded=1;sketch=0;orthogonalLoop=1;jettySize=auto;html=1;fontFamily=Tahoma;fontSize=14;" parent="1" source="47" target="54" edge="1">
                    <mxGeometry relative="1" as="geometry"/>
                </mxCell>
                <mxCell id="47" value="클릭한 아이콘&lt;br&gt;Index 확인" style="html=1;align=center;verticalAlign=middle;rounded=1;absoluteArcSize=1;arcSize=10;dashed=1;sketch=0;fontFamily=Noto Sans KR;fontSize=14;strokeWidth=2;fontStyle=1;fontSource=https%3A%2F%2Ffonts.googleapis.com%2Fcss%3Ffamily%3DNoto%2BSans%2BKR;" parent="1" vertex="1">
                    <mxGeometry x="440" y="250" width="140" height="40" as="geometry"/>
                </mxCell>
                <mxCell id="51" style="edgeStyle=orthogonalEdgeStyle;curved=0;rounded=1;sketch=0;orthogonalLoop=1;jettySize=auto;html=1;exitX=0.5;exitY=1;exitDx=0;exitDy=0;entryX=0.5;entryY=0;entryDx=0;entryDy=0;fontFamily=Tahoma;fontSize=14;" parent="1" source="49" target="47" edge="1">
                    <mxGeometry relative="1" as="geometry"/>
                </mxCell>
                <mxCell id="49" value="아이콘 클릭 이벤트" style="ellipse;whiteSpace=wrap;html=1;rounded=1;dashed=1;fontFamily=Noto Sans KR;fontSource=https%3A%2F%2Ffonts.googleapis.com%2Fcss%3Ffamily%3DNoto%2BSans%2BKR;fontSize=14;fontStyle=1;strokeWidth=2;arcSize=10;sketch=0;" parent="1" vertex="1">
                    <mxGeometry x="450" y="150" width="120" height="60" as="geometry"/>
                </mxCell>
                <mxCell id="57" value="" style="edgeStyle=orthogonalEdgeStyle;curved=0;rounded=1;sketch=0;orthogonalLoop=1;jettySize=auto;html=1;fontFamily=Tahoma;fontSize=14;" parent="1" source="54" target="56" edge="1">
                    <mxGeometry relative="1" as="geometry"/>
                </mxCell>
                <mxCell id="54" value="Index 대입" style="html=1;align=center;verticalAlign=middle;rounded=1;absoluteArcSize=1;arcSize=10;dashed=1;sketch=0;fontFamily=Noto Sans KR;fontSize=14;strokeWidth=2;fontStyle=1;fontSource=https%3A%2F%2Ffonts.googleapis.com%2Fcss%3Ffamily%3DNoto%2BSans%2BKR;spacingTop=2;" parent="1" vertex="1">
                    <mxGeometry x="440" y="330" width="140" height="70" as="geometry"/>
                </mxCell>
                <mxCell id="59" value="" style="edgeStyle=orthogonalEdgeStyle;curved=0;rounded=1;sketch=0;orthogonalLoop=1;jettySize=auto;html=1;fontFamily=Noto Sans KR;fontSource=https%3A%2F%2Ffonts.googleapis.com%2Fcss%3Ffamily%3DNoto%2BSans%2BKR;fontSize=14;" parent="1" source="56" target="58" edge="1">
                    <mxGeometry relative="1" as="geometry"/>
                </mxCell>
                <mxCell id="56" value="아이콘 이동" style="html=1;align=center;verticalAlign=middle;rounded=1;absoluteArcSize=1;arcSize=10;dashed=1;sketch=0;fontFamily=Noto Sans KR;fontSize=14;strokeWidth=2;fontStyle=1;fontSource=https%3A%2F%2Ffonts.googleapis.com%2Fcss%3Ffamily%3DNoto%2BSans%2BKR;spacingTop=2;" parent="1" vertex="1">
                    <mxGeometry x="440" y="450" width="140" height="40" as="geometry"/>
                </mxCell>
                <mxCell id="58" value="배너 이동" style="html=1;align=center;verticalAlign=middle;rounded=1;absoluteArcSize=1;arcSize=10;dashed=1;sketch=0;fontFamily=Noto Sans KR;fontSize=14;strokeWidth=2;fontStyle=1;fontSource=https%3A%2F%2Ffonts.googleapis.com%2Fcss%3Ffamily%3DNoto%2BSans%2BKR;spacingTop=2;" parent="1" vertex="1">
                    <mxGeometry x="440" y="530" width="140" height="40" as="geometry"/>
                </mxCell>
                <mxCell id="62" value="" style="edgeStyle=orthogonalEdgeStyle;curved=0;rounded=1;sketch=0;orthogonalLoop=1;jettySize=auto;html=1;fontFamily=Noto Sans KR;fontSource=https%3A%2F%2Ffonts.googleapis.com%2Fcss%3Ffamily%3DNoto%2BSans%2BKR;fontSize=14;" parent="1" source="60" target="61" edge="1">
                    <mxGeometry relative="1" as="geometry"/>
                </mxCell>
                <mxCell id="60" value="화살표 클릭 이벤트" style="ellipse;whiteSpace=wrap;html=1;rounded=1;dashed=1;fontFamily=Noto Sans KR;fontSource=https%3A%2F%2Ffonts.googleapis.com%2Fcss%3Ffamily%3DNoto%2BSans%2BKR;fontSize=14;fontStyle=1;strokeWidth=2;arcSize=10;sketch=0;" parent="1" vertex="1">
                    <mxGeometry x="590" y="150" width="120" height="60" as="geometry"/>
                </mxCell>
                <mxCell id="64" value="" style="edgeStyle=orthogonalEdgeStyle;curved=0;rounded=1;sketch=0;orthogonalLoop=1;jettySize=auto;html=1;fontFamily=Noto Sans KR;fontSource=https%3A%2F%2Ffonts.googleapis.com%2Fcss%3Ffamily%3DNoto%2BSans%2BKR;fontSize=14;" parent="1" source="61" target="63" edge="1">
                    <mxGeometry relative="1" as="geometry"/>
                </mxCell>
                <mxCell id="66" value="" style="edgeStyle=orthogonalEdgeStyle;curved=0;rounded=1;sketch=0;orthogonalLoop=1;jettySize=auto;html=1;fontFamily=Noto Sans KR;fontSource=https%3A%2F%2Ffonts.googleapis.com%2Fcss%3Ffamily%3DNoto%2BSans%2BKR;fontSize=14;" parent="1" source="61" target="65" edge="1">
                    <mxGeometry relative="1" as="geometry"/>
                </mxCell>
                <mxCell id="61" value="어느쪽&lt;br&gt;선택?" style="rhombus;whiteSpace=wrap;html=1;rounded=1;dashed=1;fontFamily=Noto Sans KR;fontSource=https%3A%2F%2Ffonts.googleapis.com%2Fcss%3Ffamily%3DNoto%2BSans%2BKR;fontSize=14;fontStyle=1;strokeWidth=2;arcSize=10;sketch=0;" parent="1" vertex="1">
                    <mxGeometry x="610" y="280" width="80" height="80" as="geometry"/>
                </mxCell>
                <mxCell id="71" style="edgeStyle=orthogonalEdgeStyle;curved=0;rounded=1;sketch=0;orthogonalLoop=1;jettySize=auto;html=1;exitX=0.5;exitY=1;exitDx=0;exitDy=0;fontFamily=Noto Sans KR;fontSource=https%3A%2F%2Ffonts.googleapis.com%2Fcss%3Ffamily%3DNoto%2BSans%2BKR;fontSize=14;entryX=0.5;entryY=0;entryDx=0;entryDy=0;" parent="1" source="63" target="67" edge="1">
                    <mxGeometry relative="1" as="geometry">
                        <mxPoint x="810.4705882352941" y="389.9999999999998" as="targetPoint"/>
                    </mxGeometry>
                </mxCell>
                <mxCell id="63" value="bannerBack" style="whiteSpace=wrap;html=1;rounded=1;dashed=1;fontFamily=Noto Sans KR;fontSource=https%3A%2F%2Ffonts.googleapis.com%2Fcss%3Ffamily%3DNoto%2BSans%2BKR;fontSize=14;fontStyle=1;strokeWidth=2;arcSize=10;sketch=0;" parent="1" vertex="1">
                    <mxGeometry x="750" y="290" width="120" height="60" as="geometry"/>
                </mxCell>
                <mxCell id="68" value="" style="edgeStyle=orthogonalEdgeStyle;curved=0;rounded=1;sketch=0;orthogonalLoop=1;jettySize=auto;html=1;fontFamily=Noto Sans KR;fontSource=https%3A%2F%2Ffonts.googleapis.com%2Fcss%3Ffamily%3DNoto%2BSans%2BKR;fontSize=14;" parent="1" source="65" target="67" edge="1">
                    <mxGeometry relative="1" as="geometry"/>
                </mxCell>
                <mxCell id="65" value="bannerNext" style="whiteSpace=wrap;html=1;rounded=1;dashed=1;fontFamily=Noto Sans KR;fontSource=https%3A%2F%2Ffonts.googleapis.com%2Fcss%3Ffamily%3DNoto%2BSans%2BKR;fontSize=14;fontStyle=1;strokeWidth=2;arcSize=10;sketch=0;" parent="1" vertex="1">
                    <mxGeometry x="590" y="450" width="120" height="60" as="geometry"/>
                </mxCell>
                <mxCell id="70" value="" style="edgeStyle=orthogonalEdgeStyle;curved=0;rounded=1;sketch=0;orthogonalLoop=1;jettySize=auto;html=1;fontFamily=Noto Sans KR;fontSource=https%3A%2F%2Ffonts.googleapis.com%2Fcss%3Ffamily%3DNoto%2BSans%2BKR;fontSize=14;" parent="1" source="67" target="69" edge="1">
                    <mxGeometry relative="1" as="geometry"/>
                </mxCell>
                <mxCell id="67" value="아이콘 이동" style="whiteSpace=wrap;html=1;rounded=1;dashed=1;fontFamily=Noto Sans KR;fontSource=https%3A%2F%2Ffonts.googleapis.com%2Fcss%3Ffamily%3DNoto%2BSans%2BKR;fontSize=14;fontStyle=1;strokeWidth=2;arcSize=10;sketch=0;" parent="1" vertex="1">
                    <mxGeometry x="750" y="450" width="120" height="60" as="geometry"/>
                </mxCell>
                <mxCell id="69" value="배너 이동" style="whiteSpace=wrap;html=1;rounded=1;dashed=1;fontFamily=Noto Sans KR;fontSource=https%3A%2F%2Ffonts.googleapis.com%2Fcss%3Ffamily%3DNoto%2BSans%2BKR;fontSize=14;fontStyle=1;strokeWidth=2;arcSize=10;sketch=0;" parent="1" vertex="1">
                    <mxGeometry x="750" y="530" width="120" height="60" as="geometry"/>
                </mxCell>
                <mxCell id="75" value="자바스크립트 흐름" style="text;strokeColor=none;fillColor=none;html=1;fontSize=40;fontStyle=1;verticalAlign=middle;align=center;rounded=1;dashed=1;sketch=0;fontFamily=Noto Sans KR;fontSource=https%3A%2F%2Ffonts.googleapis.com%2Fcss%3Ffamily%3DNoto%2BSans%2BKR;fontColor=#FFFFFF;" parent="1" vertex="1">
                    <mxGeometry x="190" y="60" width="180" height="40" as="geometry"/>
                </mxCell>
            </root>
        </mxGraphModel>
    </diagram>
</mxfile>